<svg width="16" height="19" viewBox="0 0 16 19" fill="none" xmlns="http://www.w3.org/2000/svg">
<path d="M2.09032 18.06C1.82511 18.06 1.57075 17.9546 1.38322 17.7671C1.19568 17.5796 1.09032 17.3252 1.09032 17.06L0.940324 2.4C0.928282 2.10234 0.975207 1.80525 1.0784 1.52579C1.18159 1.24633 1.33901 0.990038 1.54161 0.77164C1.74421 0.553243 1.98799 0.377054 2.25892 0.253208C2.52986 0.129361 2.8226 0.0603016 3.12032 0.05L12.7103 0C13.0084 0.00520682 13.3026 0.0690924 13.576 0.188008C13.8494 0.306923 14.0968 0.478538 14.3038 0.69305C14.5109 0.907563 14.6737 1.16077 14.7829 1.43821C14.8921 1.71565 14.9456 2.01189 14.9403 2.31L15.0803 16.97C15.082 17.1452 15.0377 17.3178 14.9517 17.4705C14.8657 17.6232 14.7411 17.7506 14.5903 17.84C14.4383 17.9278 14.2659 17.974 14.0903 17.974C13.9148 17.974 13.7423 17.9278 13.5903 17.84L7.89032 14.68L2.60032 17.91C2.44368 17.9975 2.2694 18.0488 2.09032 18.06ZM7.85032 12.51C8.02409 12.5103 8.19535 12.5514 8.35032 12.63L13.0603 15.24L12.9403 2.29C12.9403 2.09 12.8103 1.95 12.7303 1.96L3.13032 2.05C3.05032 2.05 2.94032 2.18 2.94032 2.38L3.06032 15.28L7.34032 12.65C7.49576 12.561 7.67123 12.5128 7.85032 12.51Z" fill="white"/>
</svg>
